<?xml version="1.0" encoding="UTF-8"?>
<svg id="HQ" xmlns="http://www.w3.org/2000/svg" viewBox="0 0 425 200">
  <defs>
    <style>
      .cls-1 {
        fill: #0093de;
      }

      .cls-2 {
        fill: #ffad25;
      }
    </style>
  </defs>
  <g>
    <path class="cls-1" d="m83.1,151.5c-1.7-1.8-3.7-3.8-6-5.7,1.5-1.3,2.9-2.5,4.1-3.8.8.3,1.6.5,2.5.5,3.3,0,5.9-2.6,5.9-5.9s-.4-2.6-1.2-3.6c2.1-3.7,2.5-6.9,1.1-9.4-2.3-3.9-8.8-4.7-17.4-2.7-2.5.6-5.1,1.4-7.9,2.3-.5-2.9-1.2-5.6-1.9-8-2.6-8.5-6.5-13.8-11-13.8s-8.4,5.3-11,13.8c-.7,2.4-1.4,5.1-1.9,8-2.8-1-5.5-1.8-7.9-2.3-5.5-1.3-10.1-1.4-13.4-.4-3.1,1-5,3.3-4.9,6.6,0,1.9.9,4,2.2,6.3-.7,1-1.1,2.2-1.1,3.5,0,3.3,2.6,5.9,5.9,5.9s1.7-.2,2.5-.5c1.2,1.1,2.4,2.2,3.7,3.4-2.3,1.9-4.3,3.9-6,5.7-6.1,6.5-8.7,12.5-6.4,16.4,2.3,3.9,8.8,4.7,17.4,2.7,2.5-.6,5.1-1.4,7.9-2.3.4,2,.8,4,1.3,5.8-1.3,1.1-2.1,2.7-2.1,4.5,0,3.3,2.6,5.9,5.9,5.9s.2,0,.3,0c2.2,3.6,4.7,5.6,7.5,5.6,4.5,0,8.4-5.3,11-13.8.7-2.4,1.4-5.1,1.9-8,2.8,1,5.5,1.8,7.9,2.3,5.8,1.3,10.6,1.5,13.8.2,3.7-1.4,5.1-4.5,4.1-8.3-.8-3.2-3.2-7-6.9-11Zm-53.6,15.2c-6.9,1.6-11.9,1.5-13.2-.8-1.3-2.3,1-6.6,5.9-11.8,1.8-1.9,3.8-3.9,6.2-5.8,2.5,2,5.2,4,8.2,5.9.2,3.5.6,6.9,1,10.1-2.9,1-5.6,1.9-8.2,2.4Zm6.9-17.4c-1.7-1.2-3.3-2.4-4.9-3.6,1.5-1.2,3.2-2.4,4.9-3.6,0,1.2,0,2.4,0,3.6s0,2.4,0,3.6Zm.2-12c-2.9,1.9-5.7,3.9-8.2,5.9-1.4-1.2-2.8-2.4-4-3.6.4-.8.6-1.7.6-2.6,0-3.3-2.6-5.9-5.9-5.9s-1.1,0-1.6.2c-.4-.6-.6-1.2-.9-1.7-1.6-3.8,0-5.6,3.9-5.9,2.3-.2,5.3.2,8.9,1,2.5.6,5.3,1.4,8.2,2.4-.5,3.2-.8,6.5-1,10.1Zm25.1-2.6c-2-1.2-4.1-2.4-6.2-3.6,1.9-.9,3.7-1.7,5.5-2.4.3,1.9.5,3.9.7,6Zm-17.8-18.3c2.1-6.8,4.7-11,7.3-11s5.2,4.2,7.3,11c.8,2.5,1.4,5.3,2,8.3-3,1.2-6.1,2.6-9.2,4.1-3.2-1.6-6.2-3-9.2-4.1.5-3,1.2-5.8,2-8.3Zm-2.6,12.3c1.8.7,3.6,1.5,5.5,2.4-1,.6-2.1,1.1-3.1,1.7-1,.6-2.1,1.2-3.1,1.8.2-2.1.4-4.1.7-6Zm-.7,28.1c2,1.2,4.1,2.4,6.2,3.6-1.9.9-3.7,1.7-5.5,2.4-.3-1.9-.5-3.9-.7-6Zm17.8,18.3c-2.1,6.8-4.7,11-7.3,11s-2.7-1.1-4-3.1c1.2-1.1,2-2.7,2-4.4,0-3.3-2.6-5.9-5.9-5.9s0,0-.1,0c-.5-1.8-.9-3.7-1.3-5.8,3-1.2,6.1-2.6,9.2-4.1,3.2,1.6,6.2,3,9.2,4.1-.5,3-1.2,5.8-2,8.3Zm2.6-12.3c-1.8-.7-3.6-1.5-5.5-2.4,1-.6,2.1-1.1,3.1-1.7,1-.6,2.1-1.2,3.1-1.8-.2,2.1-.4,4.1-.7,6Zm1-10.8c-1.7,1.1-3.5,2.2-5.3,3.2-1.8,1.1-3.7,2.1-5.5,3-3.7-1.9-7.3-4-10.8-6.2,0-2-.1-4.1-.1-6.2s0-4.2.1-6.2c1.7-1.1,3.5-2.2,5.3-3.2,1.8-1.1,3.7-2.1,5.5-3,3.7,1.9,7.3,4,10.8,6.2,0,2,.1,4.1.1,6.2s0,4.2-.1,6.2Zm10.9-27.2c6.9-1.6,11.9-1.5,13.2.8.7,1.2.3,3.1-.9,5.3-.5-.1-1-.2-1.5-.2-3.3,0-5.9,2.6-5.9,5.9s.2,1.8.6,2.6c-1.3,1.3-2.8,2.6-4.4,4-2.5-2-5.2-4-8.2-5.9-.2-3.5-.6-6.9-1-10.1,2.9-1,5.6-1.9,8.2-2.4Zm-6.9,17.4c1.7,1.2,3.3,2.4,4.9,3.6-1.5,1.2-3.2,2.4-4.9,3.6,0-1.2,0-2.4,0-3.6s0-2.4,0-3.6Zm17.3,25.4c-2.4.5-6,.2-10.3-.9-2.5-.6-5.3-1.4-8.2-2.4.5-3.2.8-6.5,1-10.1,2.9-1.9,5.7-3.9,8.2-5.9,2.4,2,4.4,4,6.2,5.8,2.9,3.2,5,6,5.8,8.2,1,2.8.2,4.6-2.7,5.2Z"/>
    <path class="cls-2" d="m43.8,145.8c0,4.1,3.3,7.4,7.4,7.4s7.4-3.3,7.4-7.4-3.3-7.4-7.4-7.4-7.4,3.3-7.4,7.4Z"/>
  </g>
  <g>
    <path class="cls-1" d="m48.5,48.6c-18.4-1.3-27.8-3.8-27.8-13.9,0-14.6,22.5-15.3,27-15.3,9.6,0,19.8,2.9,29.5,8.3,1.1.7,2.5.8,3.8.5,1.2-.4,2.2-1.2,2.7-2.2.7-1.1.8-2.4.5-3.6-.3-1.2-1.1-2.2-2.3-2.9-10.7-6.1-22.5-9.4-34.3-9.5-16.8,0-36.5,6.5-36.5,24.7s20.5,22.3,36.9,23.8h.6c17.7,1.6,28.4,3.3,28.4,13.5s-18.3,15.2-28,15.2-19.4-1.6-31.8-9.4c-1.1-.7-2.3-.9-3.6-.6-1.2.3-2.2,1-2.9,2.1-1.4,2.4-.7,5.2,1.6,6.6,11,6.8,24.4,10.6,36.7,10.6h0c.7,0,1.4,0,2.1,0,9,0,21.3-2.6,29.1-9.9,4.3-4.1,6.5-9.1,6.5-14.7,0-20.8-23.9-22.5-38.1-23.4Z"/>
    <path class="cls-1" d="m108.2,47.1c2.7,0,4.8-2.1,4.8-4.7v-19c0-1.9,1.5-3.5,3.3-3.5h63.5c2.6,0,4.7-2.2,4.7-4.7s-2-4.6-4.7-4.6h-63.5c-7.1,0-12.8,5.8-12.8,12.8v19c0,2.6,2.2,4.7,4.7,4.7Z"/>
    <path class="cls-1" d="m164,48.7h-47.7c-7.1,0-12.8,5.8-12.8,12.8v30.4c0,2.6,2.2,4.7,4.7,4.7s4.8-2.1,4.8-4.7v-30.4c0-1.9,1.5-3.5,3.3-3.5h47.7c2.6,0,4.7-2.1,4.7-4.6s-2.1-4.7-4.7-4.7Z"/>
    <path class="cls-2" d="m205.5,33.1c-2.6,0-4.7,2.2-4.7,4.7v54.4c0,8.8-5.3,17.8-17.2,18-2.6,0-4.7,2.1-4.7,4.8s2.2,4.7,4.7,4.7c15.2,0,26.7-11.8,26.7-27.5v-54.4c0-2.6-2.2-4.7-4.8-4.7Z"/>
    <path class="cls-2" d="m205.5,14.5c-3.7,0-6.4,2.5-6.4,6s2.6,6,6.4,6,6.4-2.5,6.4-6-2.6-6-6.4-6Z"/>
    <path class="cls-1" d="m280.8,58h4.9c14,0,25.8-11,25.8-24s-11.6-23.4-25.9-23.4h-41.1c-7.1,0-12.8,5.8-12.8,12.8v68.5c0,2.6,2.2,4.7,4.7,4.7s4.8-2.1,4.8-4.7V23.4c0-1.9,1.5-3.6,3.3-3.6h41.1c8.9,0,16.5,6.5,16.5,14.2s-7.6,14.6-16.4,14.6h-16.4c-1.9,0-3.5,1.1-4.3,2.9-.8,1.8-.4,3.8,1,5.2l38.5,38.5c.9,1,2.2,1.5,3.5,1.5s2.4-.4,3.2-1.2c1-.8,1.6-2,1.7-3.3,0-1.4-.5-2.7-1.6-3.7l-30.5-30.6Z"/>
    <path class="cls-1" d="m368,10c-23.4,0-47,13.4-47,43.3s18.4,43.3,47,43.3,47-17,47-43.3-18.4-43.3-47-43.3Zm37.4,43.3c0,20.9-14.3,33.9-37.4,33.9s-37.4-13-37.4-33.9,14.3-33.8,37.4-33.8,37.4,12.9,37.4,33.8Z"/>
  </g>
  <g>
    <g>
      <path class="cls-1" d="m115.2,138.5c-2.3,0-4.2-.5-5.9-1.5-.2-.1-.3-.3-.4-.6s0-.5.1-.7c.1-.2.3-.3.6-.4.2,0,.5,0,.7.1,1.5.9,3.2,1.4,5.1,1.3.4,0,.8,0,1.2-.1.4,0,.8-.2,1.2-.3.4-.1.8-.4,1-.7.3-.3.4-.6.4-1s0-.5-.2-.7c-.1-.2-.3-.3-.5-.5-.2-.1-.5-.2-.7-.3-.2,0-.6-.1-1-.2-.4,0-.8,0-1.1-.1-.3,0-.7,0-1.2,0-.6,0-1.1,0-1.6-.1-.5,0-.9-.2-1.4-.3-.5-.2-.9-.4-1.2-.6-.3-.3-.6-.6-.8-1-.2-.4-.3-.9-.3-1.5s.2-1.2.5-1.7.8-.9,1.3-1.2c.5-.3,1.1-.5,1.8-.7.6-.1,1.3-.2,1.9-.2,2,0,3.9.5,5.6,1.5.2.1.4.3.4.5,0,.2,0,.5,0,.7-.1.2-.3.4-.5.4-.2,0-.5,0-.7,0-1.6-.9-3.2-1.3-4.7-1.3s-1,0-1.5.2c-.5.1-1,.3-1.5.7-.5.3-.7.8-.7,1.3s0,.3,0,.5c0,.1.1.3.2.4,0,.1.2.2.3.3.1,0,.3.2.4.2.1,0,.3.1.5.2.2,0,.4,0,.5.1.1,0,.3,0,.5,0,.2,0,.4,0,.5,0,.1,0,.3,0,.6,0,.2,0,.4,0,.5,0,1.7.1,2.9.3,3.6.5,1.5.5,2.3,1.5,2.3,3s-.2,1.2-.6,1.8c-.4.5-.8.9-1.4,1.2-.6.3-1.2.5-1.9.7-.6.1-1.3.2-2,.2Z"/>
      <path class="cls-1" d="m128.5,138.5c-1.6,0-2.9-.4-3.9-1.3-1-.9-1.5-2-1.5-3.4s.5-2.6,1.5-3.4c1-.9,2.3-1.3,3.9-1.3s2.9.4,3.8,1.3c.9.9,1.4,2,1.4,3.5s-.5,2.6-1.4,3.5c-.9.9-2.2,1.3-3.8,1.3Zm0-7.8c-.6,0-1.1,0-1.6.2-.5.2-.8.4-1,.6-.2.2-.4.5-.6.8-.1.3-.2.6-.3.8,0,.2,0,.4,0,.7s0,.4,0,.7c0,.2.1.5.3.8.1.3.3.6.6.8.2.2.6.4,1,.6.5.2,1,.2,1.6.2s.7,0,1.1-.1c.4,0,.7-.2,1.1-.5.4-.2.7-.5.9-1,.2-.4.3-.9.3-1.5s-.1-1.1-.3-1.5-.5-.7-.9-1c-.4-.2-.7-.4-1.1-.5s-.7-.1-1.1-.1Z"/>
      <path class="cls-1" d="m141.2,138.5c-1.7,0-3-.4-3.9-1.3s-1.4-2-1.4-3.5.5-2.6,1.4-3.5c.9-.9,2.2-1.3,3.9-1.3s2.5.3,3.4.9c.2.1.3.3.4.6,0,.2,0,.5-.1.6-.3.4-.7.5-1.2.2-.6-.4-1.4-.6-2.4-.6-2.4,0-3.5,1-3.5,3.1s.1,1.1.3,1.5c.2.4.5.7.9,1,.4.2.7.4,1.1.5.4,0,.8.1,1.1.1.9,0,1.7-.2,2.4-.6.2-.1.5-.2.7-.2.2,0,.4.1.5.3.1.2.2.4.1.7s-.2.4-.4.6c-.9.6-2,.9-3.4.9Z"/>
      <path class="cls-1" d="m149.5,127.6c-.2.2-.5.3-.8.3s-.6,0-.8-.3c-.2-.2-.3-.5-.3-.8s.1-.6.3-.8c.2-.2.5-.3.8-.3s.6,0,.8.3c.2.2.3.5.3.8s-.1.6-.3.8Zm-1.5,10.6c.2.2.4.3.6.3s.5,0,.6-.3.3-.4.3-.6v-7.7c0-.2,0-.5-.3-.6s-.4-.3-.6-.3-.5,0-.6.3-.3.4-.3.6v7.7c0,.2,0,.5.3.6Z"/>
      <path class="cls-1" d="m157.5,138.5c-1.6,0-2.8-.4-3.7-1.3-.9-.9-1.4-2-1.4-3.4s.4-2.6,1.3-3.5,2.1-1.3,3.5-1.3,2.6.5,3.5,1.4c.9.9,1.3,2,1.3,3.3s0,.5-.3.6c-.2.2-.4.3-.6.3h-5.4c-.2,0-.5,0-.6-.2s-.3-.4-.3-.6,0-.4.3-.6.4-.2.6-.2h4.4c-.1-.6-.5-1.2-1-1.6-.5-.4-1.2-.7-2-.7s-1.7.3-2.3.8-.8,1.3-.8,2.2.2,1.5.7,2.1c.5.6,1.3.9,2.5,1,.6,0,1.1,0,1.7-.3.5-.2,1-.5,1.3-.8.2-.2.4-.3.6-.3s.4,0,.6.3c.2.3.3.5.2.8-.2.5-.7.9-1.6,1.3-.9.4-1.8.6-2.6.6Zm1.5-12l-2.1,1.6c-.2.1-.4.2-.7.1-.2,0-.4-.2-.6-.3-.1-.2-.2-.4-.2-.7,0-.2.2-.4.4-.6l2.1-1.6c.2-.1.4-.2.7-.2.3,0,.4.2.6.4.1.2.2.4.1.7,0,.2-.2.4-.3.6Z"/>
      <path class="cls-1" d="m168.4,136.9c.2,0,.4.2.5.4.1.2.2.4,0,.7,0,.2-.2.3-.4.5-.2.1-.4.2-.7.1-1.1-.2-1.9-.7-2.5-1.7-.6-.9-.9-2.1-.9-3.4v-2.6h-.4c-.3,0-.5,0-.6-.2s-.3-.4-.3-.6,0-.4.2-.6.4-.2.7-.2h.4v-2c0-.3,0-.5.3-.6s.4-.3.6-.3.5,0,.6.3.3.4.3.6v2h2c.3,0,.5,0,.7.2s.2.4.2.6,0,.4-.3.6-.4.2-.6.2h-2v2.6c0,1.9.7,3.1,2,3.5Z"/>
      <path class="cls-1" d="m175.6,138.5c-1.6,0-2.8-.4-3.7-1.3-.9-.9-1.4-2-1.4-3.4s.4-2.6,1.3-3.5,2.1-1.3,3.5-1.3,2.6.5,3.5,1.4c.9.9,1.3,2,1.3,3.3s0,.5-.3.6c-.2.2-.4.3-.6.3h-5.4c-.2,0-.5,0-.6-.2s-.3-.4-.3-.6,0-.4.3-.6.4-.2.6-.2h4.4c-.1-.6-.5-1.2-1-1.6-.5-.4-1.2-.7-2-.7s-1.7.3-2.3.8-.8,1.3-.8,2.2.2,1.5.7,2.1c.5.6,1.3.9,2.5,1,.6,0,1.1,0,1.7-.3.5-.2,1-.5,1.3-.8.2-.2.4-.3.6-.3s.4,0,.6.3c.2.3.3.5.2.8-.2.5-.7.9-1.6,1.3-.9.4-1.8.6-2.6.6Zm1.5-12l-2.1,1.6c-.2.1-.4.2-.7.1-.2,0-.4-.2-.6-.3-.1-.2-.2-.4-.2-.7,0-.2.2-.4.4-.6l2.1-1.6c.2-.1.4-.2.7-.2.3,0,.4.2.6.4.1.2.2.4.1.7,0,.2-.2.4-.3.6Z"/>
      <path class="cls-1" d="m202.7,125.6c.3,0,.5,0,.6.2s.3.4.3.6,0,.4-.3.6-.4.2-.6.2h-9.5c0,0-.2,0-.3.1s-.1.2-.1.3v2.3c0,.2,0,.5-.3.6s-.4.3-.6.3-.5,0-.6-.3-.3-.4-.3-.6v-2.2c0-.6.2-1.1.6-1.5.4-.4.9-.6,1.5-.6h9.5Zm-2.4,5.5c.2,0,.5,0,.6.2.2.2.3.4.3.6s0,.4-.3.6c-.2.2-.4.2-.6.2h-7.1c0,0-.2,0-.3.1s-.1.2-.1.3v4.4c0,.2,0,.4-.3.6s-.4.3-.6.3-.5,0-.6-.3-.3-.4-.3-.6v-4.3c0-.6.2-1.1.6-1.5.4-.4.9-.6,1.5-.6h7.1Z"/>
      <path class="cls-1" d="m209.1,129c.2,0,.4,0,.6.3.2.2.2.4.2.6s0,.4-.2.6-.4.2-.6.2c-.9,0-1.5.3-2,.8-.5.5-.7,1.4-.7,2.7v3.4c0,.2,0,.4-.3.6s-.4.3-.6.3-.5,0-.6-.3-.3-.4-.3-.6v-7.7c0-.2,0-.5.3-.6s.4-.3.6-.3.5,0,.6.3c.2.2.2.4.2.6v.4c.5-.9,1.4-1.3,2.7-1.3Z"/>
      <path class="cls-1" d="m216,138.5c-1.2,0-2.2-.3-2.9-.8-.7-.5-1.1-1.2-1.1-2.1s.3-1.6,1-2c.7-.5,1.7-.7,3-.7h2.2c.2,0,.5,0,.6.2s.3.4.3.6,0,.4-.3.6-.4.2-.6.2h-2.2c-.7,0-1.3.1-1.7.3-.4.2-.6.5-.6.8,0,.8.7,1.2,2.2,1.2s1.2-.1,1.8-.4c.3-.1.6-.1.8,0s.3.2.4.4c0,0,.1.3,0,.5s-.1.4-.4.6c-.8.5-1.7.7-2.7.7Zm4.6,0c-.2,0-.5,0-.6-.3s-.3-.4-.3-.6v-4.9c0-.7-.2-1.2-.6-1.5-.4-.3-1.1-.5-2.2-.5s-2.2.2-2.9.7c-.2.1-.4.2-.6.1s-.4-.2-.5-.3c-.1-.2-.2-.4-.1-.6,0-.2.2-.4.4-.6,1-.6,2.3-.9,3.8-.9,3,0,4.6,1.2,4.6,3.7v4.9c0,.2,0,.5-.3.6s-.4.3-.6.3Z"/>
      <path class="cls-1" d="m226.1,138.3c-.2.2-.4.3-.6.3s-.5,0-.6-.3-.3-.4-.3-.6v-7.5c0-.2,0-.5.3-.6s.4-.3.6-.3.5,0,.6.3.3.4.3.6v7.5c0,.2,0,.5-.3.6Zm7.5,0c-.2.2-.4.3-.6.3s-.5,0-.6-.3-.3-.4-.3-.6v-3.4c0-1.2-.2-2.1-.6-2.7-.4-.6-1.1-.9-2.2-.9s-.9,0-1.2.1c-.2,0-.4,0-.7,0-.2,0-.4-.3-.4-.5,0-.2,0-.4,0-.6,0-.2.2-.3.3-.4.4-.2,1-.3,2-.3,1.6,0,2.7.4,3.4,1.3.7.9,1.1,2.2,1.1,3.9v3.4c0,.2,0,.5-.3.6Z"/>
      <path class="cls-1" d="m244.9,136.1c.2,0,.4.1.5.3.1.2.2.4.1.7s-.2.4-.4.6c-.7.4-1.5.7-2.5.8-.1,1.3-.6,2.4-1.4,3.3-.2.2-.4.3-.7.3s-.5,0-.6-.2c-.2-.2-.3-.4-.3-.6s0-.5.2-.7c.5-.6.8-1.3.9-2.1-1.4-.1-2.5-.6-3.3-1.5-.8-.9-1.1-1.9-1.1-3.2s.5-2.6,1.4-3.5c.9-.9,2.2-1.3,3.9-1.3s2.5.3,3.4.9c.2.1.3.3.4.6,0,.2,0,.5-.1.6-.3.4-.7.5-1.2.2-.6-.4-1.4-.6-2.4-.6-2.4,0-3.5,1-3.5,3.1s.1,1.1.3,1.5c.2.4.5.7.9,1,.4.2.7.4,1.1.5.4,0,.8.1,1.1.1.9,0,1.7-.2,2.4-.6.2-.1.5-.2.7-.2Z"/>
      <path class="cls-1" d="m251.9,138.5c-1.2,0-2.2-.3-2.9-.8-.7-.5-1.1-1.2-1.1-2.1s.3-1.6,1-2c.7-.5,1.7-.7,3-.7h2.2c.2,0,.5,0,.6.2s.3.4.3.6,0,.4-.3.6-.4.2-.6.2h-2.2c-.7,0-1.3.1-1.7.3-.4.2-.6.5-.6.8,0,.8.7,1.2,2.2,1.2s1.2-.1,1.8-.4c.3-.1.6-.1.8,0s.3.2.4.4c0,0,.1.3,0,.5s-.1.4-.4.6c-.8.5-1.7.7-2.7.7Zm4.6,0c-.2,0-.5,0-.6-.3s-.3-.4-.3-.6v-4.9c0-.7-.2-1.2-.6-1.5-.4-.3-1.1-.5-2.2-.5s-2.2.2-2.9.7c-.2.1-.4.2-.6.1s-.4-.2-.5-.3c-.1-.2-.2-.4-.1-.6,0-.2.2-.4.4-.6,1-.6,2.3-.9,3.8-.9,3,0,4.6,1.2,4.6,3.7v4.9c0,.2,0,.5-.3.6s-.4.3-.6.3Z"/>
      <path class="cls-1" d="m262.3,127.6c-.2.2-.5.3-.8.3s-.6,0-.8-.3c-.2-.2-.3-.5-.3-.8s.1-.6.3-.8c.2-.2.5-.3.8-.3s.6,0,.8.3c.2.2.3.5.3.8s-.1.6-.3.8Zm-1.5,10.6c.2.2.4.3.6.3s.5,0,.6-.3.3-.4.3-.6v-7.7c0-.2,0-.5-.3-.6s-.4-.3-.6-.3-.5,0-.6.3-.3.4-.3.6v7.7c0,.2,0,.5.3.6Z"/>
      <path class="cls-1" d="m272.4,138.1c-1,.5-2.2.6-3.7.4-1.5-.2-2.5-.6-3.2-1.2-.3-.2-.4-.5-.4-.8s0-.5.2-.5c.1-.2.3-.3.6-.3.2,0,.4,0,.6.2.6.5,1.5.8,2.5,1,1,.2,1.9,0,2.6-.3.4-.2.6-.5.6-.9s-.2-.6-.5-.7-1.1-.3-2.2-.3c-.6,0-1.1-.1-1.6-.2s-.9-.2-1.3-.4c-.4-.2-.8-.5-1-.8-.2-.3-.4-.8-.4-1.2,0-1.1.5-1.8,1.6-2.4.9-.5,2.1-.6,3.4-.5,1.3.2,2.4.6,3.3,1.2.2.1.3.3.3.6,0,.2,0,.4-.2.6-.2.2-.3.3-.6.3-.2,0-.4,0-.6-.2-.7-.5-1.5-.8-2.5-.9-1-.1-1.8,0-2.5.3-.4.2-.6.5-.6.8s0,.3.1.4.3.2.8.3c.4,0,1,.2,1.8.2.5,0,.9,0,1.2.1.3,0,.7.1,1.1.3.4.1.8.3,1,.5s.5.4.7.8c.2.3.3.7.3,1.2s-.1.9-.4,1.3-.7.8-1.2,1.1Z"/>
      <path class="cls-1" d="m281.3,138.5c-1.6,0-2.8-.4-3.7-1.3-.9-.9-1.4-2-1.4-3.4s.4-2.6,1.3-3.5,2.1-1.3,3.5-1.3,2.6.5,3.5,1.4c.9.9,1.3,2,1.3,3.3s0,.5-.3.6c-.2.2-.4.3-.6.3h-5.4c-.2,0-.5,0-.6-.2s-.3-.4-.3-.6,0-.4.3-.6.4-.2.6-.2h4.4c-.1-.6-.5-1.2-1-1.6-.5-.4-1.2-.7-2-.7s-1.7.3-2.3.8-.8,1.3-.8,2.2.2,1.5.7,2.1c.5.6,1.3.9,2.5,1,.6,0,1.1,0,1.7-.3.5-.2,1-.5,1.3-.8.2-.2.4-.3.6-.3s.4,0,.6.3c.2.3.3.5.2.8-.2.5-.7.9-1.6,1.3-.9.4-1.8.6-2.6.6Z"/>
    </g>
    <g>
      <path class="cls-1" d="m112.6,182.7c-.2.2-.4.3-.6.3s-.5,0-.6-.3-.3-.4-.3-.6v-9.9c0-.6.2-1.1.6-1.5.4-.4.9-.6,1.5-.6h6.2c1.2,0,2.2.3,3,1s1.2,1.6,1.2,2.6-.4,1.9-1.2,2.6c-.8.7-1.8,1-3,1h-.4l4.1,4.2c.2.2.3.5.3.7s-.1.4-.3.6c-.2.1-.4.2-.6.2-.2,0-.4,0-.7-.3l-5.6-5.7c-.3-.3-.3-.6-.2-1,.1-.3.4-.5.8-.5h2.6c.6,0,1.2-.2,1.7-.5s.7-.8.7-1.4-.2-1-.7-1.4c-.5-.4-1-.5-1.7-.5h-6.2c0,0-.2,0-.3.1s-.1.2-.1.3v10c0,.2,0,.4-.3.6Z"/>
      <path class="cls-1" d="m129,183c-1.2,0-2.2-.3-2.9-.8-.7-.5-1.1-1.2-1.1-2.1s.3-1.6,1-2c.7-.5,1.7-.7,3-.7h2.2c.2,0,.5,0,.6.2s.3.4.3.6,0,.4-.3.6-.4.2-.6.2h-2.2c-.7,0-1.3.1-1.7.3-.4.2-.6.5-.6.8,0,.8.7,1.2,2.2,1.2s1.2-.1,1.8-.4c.3-.1.6-.1.8,0s.3.2.4.4c0,0,.1.3,0,.5s-.1.4-.4.6c-.8.5-1.7.7-2.7.7Zm4.6,0c-.2,0-.5,0-.6-.3s-.3-.4-.3-.6v-4.9c0-.7-.2-1.2-.6-1.5-.4-.3-1.1-.5-2.2-.5s-2.2.2-2.9.7c-.2.1-.4.2-.6.1s-.4-.2-.5-.3c-.1-.2-.2-.4-.1-.6,0-.2.2-.4.4-.6,1-.6,2.3-.9,3.8-.9,3,0,4.6,1.2,4.6,3.7v4.9c0,.2,0,.5-.3.6s-.4.3-.6.3Z"/>
      <path class="cls-1" d="m141.9,183c-1.4,0-2.6-.4-3.5-1.3-.9-.9-1.3-2.1-1.3-3.6s.4-2.5,1.3-3.3c.9-.9,2-1.3,3.4-1.3s1.4.1,2,.4c.2,0,.4.2.4.5,0,.2,0,.4,0,.6,0,.2-.2.4-.4.4-.2,0-.4,0-.7,0-.5-.2-.9-.2-1.3-.2-.9,0-1.7.3-2.2.8-.5.5-.8,1.3-.8,2.1s.2,1.7.7,2.3c.5.6,1.2.9,2.3.9s1.4-.3,2-.8c.6-.5.9-1.1.9-1.9v-7.9c0-.2,0-.5.3-.6.2-.2.4-.3.6-.3s.5,0,.6.3.3.4.3.6v7.9c0,1.2-.5,2.2-1.4,3s-2.1,1.3-3.4,1.3Z"/>
      <path class="cls-1" d="m151.5,172.1c-.2.2-.5.3-.8.3s-.6,0-.8-.3c-.2-.2-.3-.5-.3-.8s.1-.6.3-.8c.2-.2.5-.3.8-.3s.6,0,.8.3c.2.2.3.5.3.8s-.1.6-.3.8Zm-1.5,10.6c.2.2.4.3.6.3s.5,0,.6-.3.3-.4.3-.6v-7.7c0-.2,0-.5-.3-.6s-.4-.3-.6-.3-.5,0-.6.3-.3.4-.3.6v7.7c0,.2,0,.5.3.6Z"/>
      <path class="cls-1" d="m159.6,183c-1.6,0-2.9-.4-3.9-1.3-1-.9-1.5-2-1.5-3.4s.5-2.6,1.5-3.4c1-.9,2.3-1.3,3.9-1.3s2.9.4,3.8,1.3c.9.9,1.4,2,1.4,3.5s-.5,2.6-1.4,3.5c-.9.9-2.2,1.3-3.8,1.3Zm0-7.8c-.6,0-1.1,0-1.6.2s-.8.4-1,.6c-.2.2-.4.5-.6.8-.1.3-.2.6-.3.8,0,.2,0,.4,0,.7s0,.4,0,.7c0,.2.1.5.3.8.1.3.3.6.6.8.2.2.6.4,1,.6.5.2,1,.2,1.6.2s.7,0,1.1-.1.7-.2,1.1-.5c.4-.2.7-.5.9-1,.2-.4.3-.9.3-1.5s-.1-1.1-.3-1.5-.5-.7-.9-1c-.4-.2-.7-.4-1.1-.5s-.7-.1-1.1-.1Z"/>
      <path class="cls-1" d="m171.3,181.4c.2,0,.4.2.5.4.1.2.2.4,0,.7,0,.2-.2.3-.4.5-.2.1-.4.2-.7.1-1.1-.2-1.9-.7-2.5-1.7-.6-.9-.9-2.1-.9-3.4v-2.6h-.4c-.3,0-.5,0-.6-.2s-.3-.4-.3-.6,0-.4.2-.6.4-.2.7-.2h.4v-2c0-.3,0-.5.3-.6s.4-.3.6-.3.5,0,.6.3.3.4.3.6v2h2c.3,0,.5,0,.7.2s.2.4.2.6,0,.4-.3.6-.4.2-.6.2h-2v2.6c0,1.9.7,3.1,2,3.5Z"/>
      <path class="cls-1" d="m176.3,182.7c-.2.2-.4.3-.6.3s-.5,0-.6-.3-.3-.4-.3-.6v-11.3c0-.2,0-.5.3-.6s.4-.3.6-.3.5,0,.6.3.3.4.3.6v11.3c0,.2,0,.4-.3.6Zm7.4,0c-.2.2-.4.3-.6.3s-.5,0-.6-.3-.3-.4-.3-.6v-3.5c0-1.3-.2-2.2-.7-2.7-.4-.5-1.1-.8-2-.8s-.9,0-1.2.2c-.2,0-.5,0-.7,0-.2,0-.4-.3-.4-.5,0-.2,0-.5,0-.7.1-.2.3-.3.5-.4.6-.2,1.1-.3,1.8-.3s1.4.1,2,.3c.6.2,1,.5,1.3.8.3.3.6.8.7,1.2s.3,1,.3,1.4c0,.4,0,.9,0,1.4v3.4c0,.2,0,.5-.3.6Z"/>
      <path class="cls-1" d="m191.8,183c-1.6,0-2.8-.4-3.7-1.3-.9-.9-1.4-2-1.4-3.4s.4-2.6,1.3-3.5,2.1-1.3,3.5-1.3,2.6.5,3.5,1.4c.9.9,1.3,2,1.3,3.3s0,.5-.3.6c-.2.2-.4.3-.6.3h-5.4c-.2,0-.5,0-.6-.2s-.3-.4-.3-.6,0-.4.3-.6.4-.2.6-.2h4.4c-.1-.6-.5-1.2-1-1.6-.5-.4-1.2-.7-2-.7s-1.7.3-2.3.8-.8,1.3-.8,2.2.2,1.5.7,2.1c.5.6,1.3.9,2.5,1,.6,0,1.1,0,1.7-.3.5-.2,1-.5,1.3-.8.2-.2.4-.3.6-.3s.4,0,.6.3c.2.3.3.5.2.8-.2.5-.7.9-1.6,1.3-.9.4-1.8.6-2.6.6Zm1.5-12l-2.1,1.6c-.2.1-.4.2-.7.1-.2,0-.4-.2-.6-.3-.1-.2-.2-.4-.2-.7,0-.2.2-.4.4-.6l2.1-1.6c.2-.1.4-.2.7-.2.3,0,.4.2.6.4.1.2.2.4.1.7,0,.2-.2.4-.3.6Z"/>
      <path class="cls-1" d="m203.4,173.5c.2,0,.4,0,.6.3.2.2.2.4.2.6s0,.4-.2.6-.4.2-.6.2c-.9,0-1.5.3-2,.8-.5.5-.7,1.4-.7,2.7v3.4c0,.2,0,.4-.3.6s-.4.3-.6.3-.5,0-.6-.3-.3-.4-.3-.6v-7.7c0-.2,0-.5.3-.6s.4-.3.6-.3.5,0,.6.3c.2.2.2.4.2.6v.4c.5-.9,1.4-1.3,2.7-1.3Z"/>
      <path class="cls-1" d="m210.3,183c-1.2,0-2.2-.3-2.9-.8-.7-.5-1.1-1.2-1.1-2.1s.3-1.6,1-2c.7-.5,1.7-.7,3-.7h2.2c.2,0,.5,0,.6.2s.3.4.3.6,0,.4-.3.6-.4.2-.6.2h-2.2c-.7,0-1.3.1-1.7.3-.4.2-.6.5-.6.8,0,.8.7,1.2,2.2,1.2s1.2-.1,1.8-.4c.3-.1.6-.1.8,0s.3.2.4.4c0,0,.1.3,0,.5s-.1.4-.4.6c-.8.5-1.7.7-2.7.7Zm4.6,0c-.2,0-.5,0-.6-.3s-.3-.4-.3-.6v-4.9c0-.7-.2-1.2-.6-1.5-.4-.3-1.1-.5-2.2-.5s-2.2.2-2.9.7c-.2.1-.4.2-.6.1s-.4-.2-.5-.3c-.1-.2-.2-.4-.1-.6,0-.2.2-.4.4-.6,1-.6,2.3-.9,3.8-.9,3,0,4.6,1.2,4.6,3.7v4.9c0,.2,0,.5-.3.6s-.4.3-.6.3Z"/>
      <path class="cls-1" d="m223.6,173.5c1.4,0,2.6.4,3.5,1.3.9.9,1.3,2.1,1.3,3.6s-.4,2.5-1.3,3.3-2,1.3-3.4,1.3-1.6-.1-2.1-.4c-.4-.2-.5-.6-.4-1,0-.2.2-.3.4-.4s.4-.1.6,0c.6.2,1.1.3,1.4.3.9,0,1.7-.3,2.2-.8s.8-1.2.8-2.1-.2-1.7-.7-2.3c-.5-.6-1.2-1-2.3-1s-1.4.3-2,.8c-.6.5-.9,1.1-.9,1.9v7.9c0,.2,0,.5-.3.6s-.4.3-.6.3-.5,0-.6-.3-.3-.4-.3-.6v-7.9c0-1.2.5-2.2,1.4-3,.9-.8,2.1-1.3,3.4-1.3Z"/>
      <path class="cls-1" d="m235.7,183c-1.6,0-2.8-.4-3.7-1.3-.9-.9-1.4-2-1.4-3.4s.4-2.6,1.3-3.5,2.1-1.3,3.5-1.3,2.6.5,3.5,1.4c.9.9,1.3,2,1.3,3.3s0,.5-.3.6c-.2.2-.4.3-.6.3h-5.4c-.2,0-.5,0-.6-.2s-.3-.4-.3-.6,0-.4.3-.6.4-.2.6-.2h4.4c-.1-.6-.5-1.2-1-1.6-.5-.4-1.2-.7-2-.7s-1.7.3-2.3.8c-.6.6-.8,1.3-.8,2.2s.2,1.5.7,2.1c.5.6,1.3.9,2.5,1,.6,0,1.1,0,1.7-.3.5-.2,1-.5,1.3-.8.2-.2.4-.3.6-.3s.4,0,.6.3c.2.3.3.5.2.8-.2.5-.7.9-1.6,1.3-.9.4-1.8.6-2.6.6Z"/>
      <path class="cls-1" d="m247.4,183c-3,0-4.5-1.7-4.5-5.2v-3.4c0-.2,0-.5.3-.6s.4-.3.6-.3.5,0,.6.3.3.4.3.6v3.4c0,1.2.2,2.1.6,2.6.4.6,1.1.9,2.2.9s1.6-.3,2.1-.8c.5-.5.7-1.4.7-2.7v-3.4c0-.2,0-.5.3-.6s.4-.3.6-.3.5,0,.6.3.3.4.3.6v3.4c0,3.5-1.5,5.2-4.5,5.2Z"/>
      <path class="cls-1" d="m258.8,181.4c.2,0,.4.2.5.4.1.2.2.4,0,.7,0,.2-.2.3-.4.5-.2.1-.4.2-.7.1-1.1-.2-1.9-.7-2.5-1.7-.6-.9-.9-2.1-.9-3.4v-2.6h-.4c-.3,0-.5,0-.6-.2s-.3-.4-.3-.6,0-.4.2-.6.4-.2.7-.2h.4v-2c0-.3,0-.5.3-.6s.4-.3.6-.3.5,0,.6.3.3.4.3.6v2h2c.3,0,.5,0,.7.2s.2.4.2.6,0,.4-.3.6-.4.2-.6.2h-2v2.6c0,1.9.7,3.1,2,3.5Z"/>
      <path class="cls-1" d="m266,183c-1.6,0-2.8-.4-3.7-1.3-.9-.9-1.4-2-1.4-3.4s.4-2.6,1.3-3.5,2.1-1.3,3.5-1.3,2.6.5,3.5,1.4c.9.9,1.3,2,1.3,3.3s0,.5-.3.6c-.2.2-.4.3-.6.3h-5.4c-.2,0-.5,0-.6-.2s-.3-.4-.3-.6,0-.4.3-.6.4-.2.6-.2h4.4c-.1-.6-.5-1.2-1-1.6-.5-.4-1.2-.7-2-.7s-1.7.3-2.3.8c-.6.6-.8,1.3-.8,2.2s.2,1.5.7,2.1c.5.6,1.3.9,2.5,1,.6,0,1.1,0,1.7-.3.5-.2,1-.5,1.3-.8.2-.2.4-.3.6-.3s.4,0,.6.3c.2.3.3.5.2.8-.2.5-.7.9-1.6,1.3-.9.4-1.8.6-2.6.6Z"/>
      <path class="cls-1" d="m280.1,182.5c-1,.5-2.2.6-3.7.4-1.5-.2-2.5-.6-3.2-1.2-.3-.2-.4-.5-.4-.8s0-.5.2-.5c.1-.2.3-.3.6-.3.2,0,.4,0,.6.2.6.5,1.5.8,2.5,1,1,.2,1.9,0,2.6-.3.4-.2.6-.5.6-.9s-.2-.6-.5-.7-1.1-.3-2.2-.3c-.6,0-1.1-.1-1.6-.2s-.9-.2-1.3-.4c-.4-.2-.8-.5-1-.8-.2-.3-.4-.8-.4-1.2,0-1.1.5-1.8,1.6-2.4.9-.5,2.1-.6,3.4-.5,1.3.2,2.4.6,3.3,1.2.2.1.3.3.3.6,0,.2,0,.4-.2.6-.2.2-.3.3-.6.3-.2,0-.4,0-.6-.2-.7-.5-1.5-.8-2.5-.9-1-.1-1.8,0-2.5.3-.4.2-.6.5-.6.8s0,.3.1.4.3.2.8.3c.4,0,1,.2,1.8.2.5,0,.9,0,1.2.1.3,0,.7.1,1.1.3.4.1.8.3,1,.5s.5.4.7.8c.2.3.3.7.3,1.2s-.1.9-.4,1.3-.7.8-1.2,1.1Z"/>
      <path class="cls-1" d="m289.7,178.5h-5.1c-.2,0-.4,0-.6-.2s-.2-.3-.2-.6,0-.4.2-.6.3-.2.6-.2h5.1c.2,0,.4,0,.6.2s.2.3.2.6,0,.4-.2.6-.3.2-.6.2Z"/>
      <path class="cls-1" d="m300,183c-2.1,0-3.8-.6-5.2-1.8-1.4-1.2-2.1-2.8-2.1-4.8s.7-3.6,2.1-4.8c1.4-1.2,3.1-1.8,5.1-1.8s3.8.6,5.1,1.8c1.4,1.2,2.1,2.8,2.1,4.8s-.7,3.5-2,4.7-3.1,1.8-5.2,1.8Zm3.9-10.1c-1-.9-2.3-1.3-3.9-1.3s-3,.4-4,1.3c-1,.9-1.5,2.1-1.5,3.5s.5,2.6,1.5,3.5c1,.9,2.3,1.3,4,1.3s3-.4,3.9-1.3c1-.9,1.5-2.1,1.5-3.5s-.5-2.6-1.5-3.5Z"/>
      <path class="cls-1" d="m311.3,182.7c-.2.2-.4.3-.6.3s-.5,0-.6-.3-.3-.4-.3-.6v-7.5c0-.2,0-.5.3-.6s.4-.3.6-.3.5,0,.6.3.3.4.3.6v7.5c0,.2,0,.5-.3.6Zm7.5,0c-.2.2-.4.3-.6.3s-.5,0-.6-.3-.3-.4-.3-.6v-3.4c0-1.2-.2-2.1-.6-2.7-.4-.6-1.1-.9-2.2-.9s-.9,0-1.2.1c-.2,0-.4,0-.7,0-.2,0-.4-.3-.4-.5,0-.2,0-.4,0-.6,0-.2.2-.3.3-.4.4-.2,1-.3,2-.3,1.6,0,2.7.4,3.4,1.3.7.9,1.1,2.2,1.1,3.9v3.4c0,.2,0,.5-.3.6Z"/>
      <path class="cls-1" d="m327,183c-1.7,0-3-.4-3.9-1.3-.9-.9-1.4-2-1.4-3.5s.5-2.6,1.4-3.5c.9-.9,2.2-1.3,3.9-1.3s2.5.3,3.4.9c.2.1.3.3.4.6,0,.2,0,.5-.1.6-.3.4-.7.5-1.2.2-.6-.4-1.4-.6-2.4-.6-2.4,0-3.5,1-3.5,3.1s.1,1.1.3,1.5c.2.4.5.7.9,1,.4.2.7.4,1.1.5s.8.1,1.1.1c.9,0,1.7-.2,2.4-.6.2-.1.5-.2.7-.2.2,0,.4.1.5.3.1.2.2.4.1.7s-.2.4-.4.6c-.9.6-2,.9-3.4.9Z"/>
      <path class="cls-1" d="m338.4,183c-1.6,0-2.9-.4-3.9-1.3-1-.9-1.5-2-1.5-3.4s.5-2.6,1.5-3.4c1-.9,2.3-1.3,3.9-1.3s2.9.4,3.8,1.3c.9.9,1.4,2,1.4,3.5s-.5,2.6-1.4,3.5c-.9.9-2.2,1.3-3.8,1.3Zm0-7.8c-.6,0-1.1,0-1.6.2s-.8.4-1,.6c-.2.2-.4.5-.6.8-.1.3-.2.6-.3.8,0,.2,0,.4,0,.7s0,.4,0,.7c0,.2.1.5.3.8.1.3.3.6.6.8.2.2.6.4,1,.6.5.2,1,.2,1.6.2s.7,0,1.1-.1.7-.2,1.1-.5c.4-.2.7-.5.9-1,.2-.4.3-.9.3-1.5s-.1-1.1-.3-1.5-.5-.7-.9-1c-.4-.2-.7-.4-1.1-.5s-.7-.1-1.1-.1Z"/>
      <path class="cls-1" d="m348.4,183c-.6,0-1.2-.2-1.6-.6-.4-.4-.6-.9-.6-1.5v-10.1c0-.2,0-.5.3-.6s.4-.3.6-.3.5,0,.6.3.3.4.3.6v10.1c0,.3.1.4.4.4s.4,0,.6.3c.2.2.2.4.2.6s0,.4-.2.6-.4.2-.6.2Z"/>
      <path class="cls-1" d="m356.3,183c-1.6,0-2.9-.4-3.9-1.3-1-.9-1.5-2-1.5-3.4s.5-2.6,1.5-3.4c1-.9,2.3-1.3,3.9-1.3s2.9.4,3.8,1.3c.9.9,1.4,2,1.4,3.5s-.5,2.6-1.4,3.5c-.9.9-2.2,1.3-3.8,1.3Zm0-7.8c-.6,0-1.1,0-1.6.2s-.8.4-1,.6c-.2.2-.4.5-.6.8-.1.3-.2.6-.3.8,0,.2,0,.4,0,.7s0,.4,0,.7c0,.2.1.5.3.8.1.3.3.6.6.8.2.2.6.4,1,.6.5.2,1,.2,1.6.2s.7,0,1.1-.1.7-.2,1.1-.5c.4-.2.7-.5.9-1,.2-.4.3-.9.3-1.5s-.1-1.1-.3-1.5-.5-.7-.9-1c-.4-.2-.7-.4-1.1-.5s-.7-.1-1.1-.1Z"/>
      <path class="cls-1" d="m368.1,186.6c-.5,0-1.1,0-1.9-.2-.8-.2-1.3-.4-1.7-.7s-.2-.3-.2-.5c0-.2,0-.4.1-.5.1-.2.3-.3.5-.4.2,0,.4,0,.6.1.8.5,1.8.7,3,.6,1.1,0,1.8-.4,2.3-.9.4-.5.7-1.4.7-2.6v-3.7c0-.7-.3-1.4-.9-1.9-.6-.5-1.3-.7-2-.7s-1.7.3-2.2.9c-.6.6-.8,1.4-.8,2.3s.3,1.6.8,2.2c.6.6,1.3.8,2.2.8s.7,0,1.1-.2c.2,0,.4,0,.6,0,.2.1.3.3.4.5,0,.2,0,.4,0,.6-.1.2-.3.3-.5.4-.6.2-1.2.3-1.7.3-1.4,0-2.6-.4-3.5-1.3-.9-.9-1.3-2-1.3-3.4s.5-2.6,1.4-3.5c.9-.9,2.1-1.4,3.5-1.4s2.4.4,3.4,1.2c.9.8,1.4,1.8,1.4,3v3.7c0,3.5-1.7,5.2-5.2,5.2Z"/>
      <path class="cls-1" d="m380.9,183c-3,0-4.5-1.7-4.5-5.2v-3.4c0-.2,0-.5.3-.6s.4-.3.6-.3.5,0,.6.3.3.4.3.6v3.4c0,1.2.2,2.1.6,2.6.4.6,1.1.9,2.2.9s1.6-.3,2.1-.8c.5-.5.7-1.4.7-2.7v-3.4c0-.2,0-.5.3-.6s.4-.3.6-.3.5,0,.6.3.3.4.3.6v3.4c0,3.5-1.5,5.2-4.5,5.2Z"/>
      <path class="cls-1" d="m393.2,183c-1.6,0-2.8-.4-3.7-1.3-.9-.9-1.4-2-1.4-3.4s.4-2.6,1.3-3.5,2.1-1.3,3.5-1.3,2.6.5,3.5,1.4c.9.9,1.3,2,1.3,3.3s0,.5-.3.6c-.2.2-.4.3-.6.3h-5.4c-.2,0-.5,0-.6-.2s-.3-.4-.3-.6,0-.4.3-.6.4-.2.6-.2h4.4c-.1-.6-.5-1.2-1-1.6-.5-.4-1.2-.7-2-.7s-1.7.3-2.3.8c-.6.6-.8,1.3-.8,2.2s.2,1.5.7,2.1c.5.6,1.3.9,2.5,1,.6,0,1.1,0,1.7-.3.5-.2,1-.5,1.3-.8.2-.2.4-.3.6-.3s.4,0,.6.3c.2.3.3.5.2.8-.2.5-.7.9-1.6,1.3-.9.4-1.8.6-2.6.6Z"/>
      <path class="cls-1" d="m407.2,182.5c-1,.5-2.2.6-3.7.4-1.5-.2-2.5-.6-3.2-1.2-.3-.2-.4-.5-.4-.8s0-.5.2-.5c.1-.2.3-.3.6-.3.2,0,.4,0,.6.2.6.5,1.5.8,2.5,1,1,.2,1.9,0,2.6-.3.4-.2.6-.5.6-.9s-.2-.6-.5-.7-1.1-.3-2.2-.3c-.6,0-1.1-.1-1.6-.2s-.9-.2-1.3-.4c-.4-.2-.8-.5-1-.8-.2-.3-.4-.8-.4-1.2,0-1.1.5-1.8,1.6-2.4.9-.5,2.1-.6,3.4-.5,1.3.2,2.4.6,3.3,1.2.2.1.3.3.3.6,0,.2,0,.4-.2.6-.2.2-.3.3-.6.3-.2,0-.4,0-.6-.2-.7-.5-1.5-.8-2.5-.9-1-.1-1.8,0-2.5.3-.4.2-.6.5-.6.8s0,.3.1.4.3.2.8.3c.4,0,1,.2,1.8.2.5,0,.9,0,1.2.1.3,0,.7.1,1.1.3.4.1.8.3,1,.5s.5.4.7.8c.2.3.3.7.3,1.2s-.1.9-.4,1.3-.7.8-1.2,1.1Z"/>
    </g>
    <g>
      <path class="cls-1" d="m113.7,160.8c-1.4,0-2.6-.4-3.5-1.3-.9-.9-1.3-2.1-1.3-3.6s.4-2.5,1.3-3.3,2-1.3,3.4-1.3,1.4.1,2,.4c.2,0,.4.2.4.5,0,.2,0,.4,0,.6,0,.2-.2.4-.4.4-.2,0-.4,0-.7,0-.5-.2-.9-.2-1.3-.2-.9,0-1.7.3-2.2.8-.5.5-.8,1.3-.8,2.1s.2,1.7.7,2.3c.5.6,1.2.9,2.3.9s1.4-.3,2-.8c.6-.5.9-1.1.9-1.9v-7.9c0-.2,0-.5.3-.6.2-.2.4-.3.6-.3s.5,0,.6.3.3.4.3.6v7.9c0,1.2-.5,2.2-1.4,3s-2.1,1.3-3.4,1.3Z"/>
      <path class="cls-1" d="m126.2,160.8c-1.6,0-2.8-.4-3.7-1.3-.9-.9-1.4-2-1.4-3.4s.4-2.6,1.3-3.5,2.1-1.3,3.5-1.3,2.6.5,3.5,1.4c.9.9,1.3,2,1.3,3.3s0,.5-.3.6c-.2.2-.4.3-.6.3h-5.4c-.2,0-.5,0-.6-.2s-.3-.4-.3-.6,0-.4.3-.6.4-.2.6-.2h4.4c-.1-.6-.5-1.2-1-1.6-.5-.4-1.2-.7-2-.7s-1.7.3-2.3.8-.8,1.3-.8,2.2.2,1.5.7,2.1c.5.6,1.3.9,2.5,1,.6,0,1.1,0,1.7-.3.5-.2,1-.5,1.3-.8.2-.2.4-.3.6-.3s.4,0,.6.3c.2.3.3.5.2.8-.2.5-.7.9-1.6,1.3-.9.4-1.8.6-2.6.6Z"/>
      <path class="cls-1" d="m140.2,160.3c-1,.5-2.2.6-3.7.4-1.5-.2-2.5-.6-3.2-1.2-.3-.2-.4-.5-.4-.8s0-.5.2-.5c.1-.2.3-.3.6-.3.2,0,.4,0,.6.2.6.5,1.5.8,2.5,1s1.9,0,2.6-.3c.4-.2.6-.5.6-.9s-.2-.6-.5-.7c-.3-.1-1.1-.3-2.2-.3-.6,0-1.1-.1-1.6-.2-.5,0-.9-.2-1.3-.4-.4-.2-.8-.5-1-.8-.2-.3-.4-.8-.4-1.2,0-1.1.5-1.8,1.6-2.4.9-.5,2.1-.6,3.4-.5,1.3.2,2.4.6,3.3,1.2.2.1.3.3.3.6,0,.2,0,.4-.2.6-.2.2-.3.3-.6.3-.2,0-.4,0-.6-.2-.7-.5-1.5-.8-2.5-.9-1-.1-1.8,0-2.5.3-.4.2-.6.5-.6.8s0,.3.1.4.3.2.8.3c.4,0,1,.2,1.8.2.5,0,.9,0,1.2.1.3,0,.7.1,1.1.3.4.1.8.3,1,.5s.5.4.7.8c.2.3.3.7.3,1.2s-.1.9-.4,1.3-.7.8-1.2,1.1Z"/>
      <path class="cls-1" d="m152.5,160.6c-.2,0-.4-.2-.6-.4-.1-.2-.2-.4,0-.7,0-.2.2-.4.4-.5.2-.1.4-.1.7,0,1.1.3,2,.2,2.6-.3.3-.2.5-.5.7-1,.2-.4.3-.9.3-1.3v-7.8c0-.2,0-.5.3-.6.2-.2.4-.3.6-.3s.5,0,.6.3.3.4.3.6v7.8c0,1.5-.6,2.7-1.7,3.6-1.1.9-2.5,1.1-4.2.7Z"/>
      <path class="cls-1" d="m166.1,160.8c-1.6,0-2.8-.4-3.7-1.3-.9-.9-1.4-2-1.4-3.4s.4-2.6,1.3-3.5c.9-.9,2.1-1.3,3.5-1.3s2.6.5,3.5,1.4c.9.9,1.3,2,1.3,3.3s0,.5-.3.6c-.2.2-.4.3-.6.3h-5.4c-.2,0-.5,0-.6-.2s-.3-.4-.3-.6,0-.4.3-.6.4-.2.6-.2h4.4c-.1-.6-.5-1.2-1-1.6-.5-.4-1.2-.7-2-.7s-1.7.3-2.3.8c-.6.6-.8,1.3-.8,2.2s.2,1.5.7,2.1c.5.6,1.3.9,2.5,1,.6,0,1.1,0,1.7-.3.5-.2,1-.5,1.3-.8.2-.2.4-.3.6-.3s.4,0,.6.3c.2.3.3.5.2.8-.2.5-.7.9-1.6,1.3-.9.4-1.8.6-2.6.6Z"/>
      <path class="cls-1" d="m177.8,160.8c-3,0-4.5-1.7-4.5-5.2v-3.4c0-.2,0-.5.3-.6s.4-.3.6-.3.5,0,.6.3.3.4.3.6v3.4c0,1.2.2,2.1.6,2.6.4.6,1.1.9,2.2.9s1.6-.3,2.1-.8c.5-.5.7-1.4.7-2.7v-3.4c0-.2,0-.5.3-.6s.4-.3.6-.3.5,0,.6.3.3.4.3.6v3.4c0,3.5-1.5,5.2-4.5,5.2Z"/>
      <path class="cls-1" d="m187,160.5c-.2.2-.4.3-.6.3s-.5,0-.6-.3-.3-.4-.3-.6v-7.5c0-.2,0-.5.3-.6s.4-.3.6-.3.5,0,.6.3.3.4.3.6v7.5c0,.2,0,.5-.3.6Zm7.5,0c-.2.2-.4.3-.6.3s-.5,0-.6-.3-.3-.4-.3-.6v-3.4c0-1.2-.2-2.1-.6-2.7-.4-.6-1.1-.9-2.2-.9s-.9,0-1.2.1c-.2,0-.4,0-.7,0-.2,0-.4-.3-.4-.5,0-.2,0-.4,0-.6,0-.2.2-.3.3-.4.4-.2,1-.3,2-.3,1.6,0,2.7.4,3.4,1.3.7.9,1.1,2.2,1.1,3.9v3.4c0,.2,0,.5-.3.6Z"/>
      <path class="cls-1" d="m202.5,160.8c-1.6,0-2.8-.4-3.7-1.3-.9-.9-1.4-2-1.4-3.4s.4-2.6,1.3-3.5,2.1-1.3,3.5-1.3,2.6.5,3.5,1.4c.9.9,1.3,2,1.3,3.3s0,.5-.3.6c-.2.2-.4.3-.6.3h-5.4c-.2,0-.5,0-.6-.2s-.3-.4-.3-.6,0-.4.3-.6.4-.2.6-.2h4.4c-.1-.6-.5-1.2-1-1.6-.5-.4-1.2-.7-2-.7s-1.7.3-2.3.8-.8,1.3-.8,2.2.2,1.5.7,2.1c.5.6,1.3.9,2.5,1,.6,0,1.1,0,1.7-.3.5-.2,1-.5,1.3-.8.2-.2.4-.3.6-.3s.4,0,.6.3c.2.3.3.5.2.8-.2.5-.7.9-1.6,1.3-.9.4-1.8.6-2.6.6Z"/>
      <path class="cls-1" d="m216.5,160.3c-1,.5-2.2.6-3.7.4-1.5-.2-2.5-.6-3.2-1.2-.3-.2-.4-.5-.4-.8s0-.5.2-.5c.1-.2.3-.3.6-.3.2,0,.4,0,.6.2.6.5,1.5.8,2.5,1s1.9,0,2.6-.3c.4-.2.6-.5.6-.9s-.2-.6-.5-.7c-.3-.1-1.1-.3-2.2-.3-.6,0-1.1-.1-1.6-.2-.5,0-.9-.2-1.3-.4-.4-.2-.8-.5-1-.8-.2-.3-.4-.8-.4-1.2,0-1.1.5-1.8,1.6-2.4.9-.5,2.1-.6,3.4-.5,1.3.2,2.4.6,3.3,1.2.2.1.3.3.3.6,0,.2,0,.4-.2.6-.2.2-.3.3-.6.3-.2,0-.4,0-.6-.2-.7-.5-1.5-.8-2.5-.9-1-.1-1.8,0-2.5.3-.4.2-.6.5-.6.8s0,.3.1.4.3.2.8.3c.4,0,1,.2,1.8.2.5,0,.9,0,1.2.1.3,0,.7.1,1.1.3.4.1.8.3,1,.5s.5.4.7.8c.2.3.3.7.3,1.2s-.1.9-.4,1.3-.7.8-1.2,1.1Z"/>
    </g>
  </g>
</svg>